<svg width="16" height="16" viewBox="0 0 16 16" fill="none" xmlns="http://www.w3.org/2000/svg">
<path fill-rule="evenodd" clip-rule="evenodd" d="M3.20156 4.00039C2.31791 4.00039 1.60156 4.71673 1.60156 5.60039V12.0004C1.60156 12.8841 2.31791 13.6004 3.20156 13.6004H12.8016C13.6852 13.6004 14.4016 12.8841 14.4016 12.0004V5.60039C14.4016 4.71673 13.6852 4.00039 12.8016 4.00039H11.5329C11.3208 4.00039 11.1172 3.9161 10.9672 3.76608L10.0702 2.86902C9.77012 2.56896 9.36316 2.40039 8.93884 2.40039H7.06431C6.63995 2.40039 6.23299 2.56896 5.93293 2.86902L5.03587 3.76608C4.88585 3.9161 4.68236 4.00039 4.47019 4.00039H3.20156ZM8.00156 11.2004C9.32708 11.2004 10.4016 10.1259 10.4016 8.80039C10.4016 7.47491 9.32708 6.40039 8.00156 6.40039C6.67608 6.40039 5.60156 7.47491 5.60156 8.80039C5.60156 10.1259 6.67608 11.2004 8.00156 11.2004Z" fill="white"/>
</svg>
