<svg width="14" height="14" viewBox="0 0 14 14" fill="none" xmlns="http://www.w3.org/2000/svg">
<path fill-rule="evenodd" clip-rule="evenodd" d="M0 1.99909C0 0.894481 0.895458 -0.000976562 2.00006 -0.000976562H4.00013C5.10473 -0.000976562 6.00019 0.894481 6.00019 1.99909V3.99915C6.00019 5.10375 5.10473 5.99921 4.00013 5.99921H2.00006C0.895458 5.99921 0 5.10375 0 3.99915V1.99909ZM5.42535e-05 10.0001C5.42535e-05 8.89543 0.895512 8 2.00012 8H4.00018C5.10478 8 6.00024 8.89543 6.00024 10.0001V12.0001C6.00024 13.1048 5.10478 14.0002 4.00018 14.0002H2.00012C0.895512 14.0002 5.42535e-05 13.1048 5.42535e-05 12.0001V10.0001ZM8.00005 1.99919C8.00005 0.89459 8.89548 -0.000868056 10.0001 -0.000868056H12.0002C13.1048 -0.000868056 14.0002 0.89459 14.0002 1.99919V3.99926C14.0002 5.10386 13.1048 5.99932 12.0002 5.99932H10.0001C8.89548 5.99932 8.00005 5.10386 8.00005 3.99926V1.99919ZM10.0001 8C8.89548 8 8.00005 8.89543 8.00005 10.0001V12.0001C8.00005 13.1048 8.89548 14.0002 10.0001 14.0002H12.0002C13.1048 14.0002 14.0002 13.1048 14.0002 12.0001V10.0001C14.0002 8.89543 13.1048 8 12.0002 8H10.0001Z" fill="#C2D0E2"/>
</svg>
