<svg width="20" height="20" viewBox="0 0 20 20" fill="none" xmlns="http://www.w3.org/2000/svg">
<path d="M19.8497 0.929814V0.929814C19.7307 0.830439 19.5663 0.805395 19.4231 0.864814L0.256398 8.78148C0.0440088 8.87006 -0.0563638 9.11403 0.0322104 9.32642C0.0756774 9.43065 0.15959 9.51277 0.264731 9.55398L5.5414 11.6031C5.67104 11.6537 5.81734 11.6362 5.9314 11.5565L12.9314 6.57815C13.1179 6.44332 13.3784 6.4852 13.5132 6.67168C13.6355 6.84087 13.6137 7.07448 13.4622 7.21815L7.6289 12.839C7.54742 12.9175 7.5014 13.0258 7.5014 13.139V18.7498V18.7498C7.50206 18.9799 7.68915 19.1659 7.91927 19.1653C8.06651 19.1648 8.20259 19.0867 8.27723 18.9598L10.9164 14.439C10.9737 14.3415 11.0981 14.3072 11.1972 14.3615L16.0522 17.0281C16.2538 17.1392 16.5072 17.0659 16.6183 16.8643C16.6378 16.829 16.652 16.791 16.6606 16.7515L19.9939 1.33481C20.0231 1.18364 19.9679 1.02855 19.8497 0.92981L19.8497 0.929814Z" fill="white"/>
</svg>
