<svg width="16" height="16" viewBox="0 0 16 16" fill="none" xmlns="http://www.w3.org/2000/svg">
<path d="M9.39453 1.95211C9.08008 2.09157 8.875 2.40602 8.875 2.75055V4.50055H5.8125C3.15469 4.50055 1 6.65524 1 9.31305C1 12.4111 3.22852 13.7947 3.73984 14.0736C3.8082 14.1119 3.88477 14.1256 3.96133 14.1256C4.25938 14.1256 4.5 13.8822 4.5 13.5869C4.5 13.3818 4.38242 13.1931 4.23203 13.0537C3.975 12.8103 3.625 12.3318 3.625 11.5006C3.625 10.0513 4.80078 8.87555 6.25 8.87555H8.875V10.6256C8.875 10.9701 9.07734 11.2845 9.39453 11.424C9.71172 11.5634 10.0781 11.506 10.3352 11.2763L14.7102 7.33883C14.8934 7.17204 15 6.93688 15 6.68805C15 6.43922 14.8961 6.20407 14.7102 6.03727L10.3352 2.09977C10.0781 1.86735 9.70898 1.80993 9.39453 1.95211Z" fill="#697B90"/>
</svg>
