<svg width="14" height="4" viewBox="0 0 14 4" fill="none" xmlns="http://www.w3.org/2000/svg">
<path d="M1.9987 0.333008C1.07648 0.333008 0.332031 1.07745 0.332031 1.99967C0.332031 2.9219 1.07648 3.66634 1.9987 3.66634C2.92092 3.66634 3.66536 2.9219 3.66536 1.99967C3.66536 1.07745 2.92092 0.333008 1.9987 0.333008ZM11.9987 0.333008C11.0765 0.333008 10.332 1.07745 10.332 1.99967C10.332 2.9219 11.0765 3.66634 11.9987 3.66634C12.9209 3.66634 13.6654 2.9219 13.6654 1.99967C13.6654 1.07745 12.9209 0.333008 11.9987 0.333008ZM6.9987 0.333008C6.07648 0.333008 5.33203 1.07745 5.33203 1.99967C5.33203 2.9219 6.07648 3.66634 6.9987 3.66634C7.92092 3.66634 8.66536 2.9219 8.66536 1.99967C8.66536 1.07745 7.92092 0.333008 6.9987 0.333008Z" fill="#434F5E"/>
</svg>
