<svg width="101" height="101" viewBox="0 0 101 101" fill="none" xmlns="http://www.w3.org/2000/svg">
<rect width="101" height="101" rx="16" fill="#E4ECF4"/>
<path d="M37 51C37 43.268 43.268 37 51 37C58.732 37 65 43.268 65 51V65H51C43.268 65 37 58.732 37 51Z" fill="#C2D1E2"/>
<path d="M55.1499 59.9121C55.7655 59.9121 56.2646 59.413 56.2646 58.7974V57.9312C58.5132 57.5496 59.7926 55.9867 59.7926 54.3148C59.7926 52.6792 58.7652 51.2617 56.1676 50.7165L54.4812 50.3712C53.7252 50.2076 53.3375 49.826 53.3375 49.3353C53.3375 48.7538 53.8802 48.1541 54.9658 48.1541C55.5275 48.1541 55.9276 48.2812 56.2147 48.4701C56.8695 48.9008 57.5765 49.5044 58.3369 49.3146C59.0611 49.1339 59.5282 48.3882 59.1314 47.7561C58.6082 46.9225 57.6999 46.176 56.2646 45.8824V44.9798C56.2646 44.3643 55.7655 43.8652 55.1499 43.8652C54.5344 43.8652 54.0353 44.3643 54.0353 44.9798V45.8279C51.9999 46.155 50.3716 47.5544 50.3716 49.5898C50.3716 51.3162 51.7092 52.552 53.8802 53.0426L55.6055 53.4243C56.3809 53.5878 56.8073 53.9331 56.8073 54.4601C56.8073 55.1689 56.1095 55.605 55.1402 55.605C54.2742 55.605 53.6488 55.35 53.2341 54.9571C52.6444 54.3984 51.903 53.753 51.1081 53.9204C50.434 54.0623 49.9559 54.7027 50.2397 55.3304C50.7735 56.5111 51.9841 57.6539 54.0353 57.9675V58.7974C54.0353 59.413 54.5344 59.9121 55.1499 59.9121Z" fill="white"/>
<rect x="41.3047" y="45.8848" width="6.46154" height="2.01923" rx="1.00962" fill="white"/>
<rect x="43.457" y="49.9238" width="4.30769" height="2.01923" rx="1.00962" fill="white"/>
<rect x="45.6172" y="53.9629" width="2.15385" height="2.01923" rx="1.00962" fill="white"/>
</svg>
