<svg width="16" height="16" viewBox="0 0 16 16" fill="none" xmlns="http://www.w3.org/2000/svg">
<g clip-path="url(#clip0_5102_19453)">
<path d="M14.9567 1H1.04349H1.04349C0.467186 1 2.07323e-08 1.44771 2.07323e-08 1.99999V11.0346L0 11.0346C0.00400394 11.5718 0.461654 12.0041 1.02219 12.0003C1.02929 12.0002 1.03639 12.0001 1.04349 11.9999H3.13046V14.6665V14.6666C3.1304 14.8506 3.28607 14.9999 3.47817 15C3.54908 15 3.6183 14.9793 3.67656 14.9405L8.1086 11.9999H14.9567C15.533 11.9999 16.0002 11.5522 16.0002 10.9999V1.99999C16.0002 1.44771 15.533 1 14.9567 1L14.9567 1ZM3.30438 7.99994C3.30438 7.7238 3.53797 7.49995 3.82613 7.49995H12.174C12.4622 7.49995 12.6958 7.7238 12.6958 7.99994C12.6958 8.27608 12.4622 8.49994 12.174 8.49994H3.82613C3.53797 8.49994 3.30438 8.27608 3.30438 7.99994ZM12.174 5.49996H3.82613C3.53797 5.49996 3.30438 5.27611 3.30438 4.99997C3.30438 4.72383 3.53797 4.49997 3.82613 4.49997H12.174C12.4622 4.49997 12.6958 4.72383 12.6958 4.99997C12.6958 5.27611 12.4622 5.49996 12.174 5.49996Z" fill="#C2D1E2"/>
</g>
<defs>
<clipPath id="clip0_5102_19453">
<rect width="16" height="16" fill="white"/>
</clipPath>
</defs>
</svg>
