<svg width="18" height="19" viewBox="0 0 18 19" fill="none" xmlns="http://www.w3.org/2000/svg">
<g clip-path="url(#clip0_5170_18941)">
<path d="M7.5 16.8125V16.8125C7.74349 17.642 8.6133 18.117 9.44276 17.8735C9.95394 17.7234 10.3537 17.3237 10.5038 16.8125" stroke="white" stroke-width="1.125" stroke-linecap="round" stroke-linejoin="round"/>
<path d="M9 2.75V1.0625" stroke="white" stroke-width="1.125" stroke-linecap="round" stroke-linejoin="round"/>
<path d="M9 2.75V2.75C12.1066 2.75 14.625 5.2684 14.625 8.375C14.625 13.6595 15.75 14.5625 15.75 14.5625H2.25C2.25 14.5625 3.375 13.1255 3.375 8.375V8.375C3.375 5.2684 5.8934 2.75 9 2.75V2.75Z" stroke="white" stroke-width="1.125" stroke-linecap="round" stroke-linejoin="round"/>
<path d="M3 8.5C3 5.18629 5.68629 2.5 9 2.5C12.3137 2.5 15 5.18629 15 8.5V14.5H3V8.5Z" fill="white"/>
</g>
<defs>
<clipPath id="clip0_5170_18941">
<rect width="18" height="18" fill="white" transform="translate(0 0.5)"/>
</clipPath>
</defs>
</svg>
