<svg width="18" height="19" viewBox="0 0 18 19" fill="none" xmlns="http://www.w3.org/2000/svg">
<path fill-rule="evenodd" clip-rule="evenodd" d="M1.49609 2.62598H2.29151L2.96342 13.3767C2.96864 13.4608 2.97495 13.5622 2.9877 13.6516C3.00259 13.756 3.03317 13.9028 3.11927 14.055C3.23155 14.2535 3.40147 14.4131 3.6065 14.5127C3.76374 14.5892 3.91228 14.6105 4.01732 14.6189C4.10729 14.626 4.20896 14.626 4.29323 14.626H14.2461C14.6603 14.626 14.9961 14.2902 14.9961 13.876C14.9961 13.4618 14.6603 13.126 14.2461 13.126H4.45068L4.35693 11.626H13.6249C13.9817 11.626 14.2915 11.626 14.5485 11.606C14.8213 11.5848 15.0921 11.5381 15.3579 11.4136C15.7574 11.2264 16.0931 10.9259 16.3232 10.5495C16.4763 10.2991 16.5527 10.0351 16.6039 9.76635C16.6522 9.51307 16.6864 9.20535 16.7257 8.85082L17.1695 4.85638C17.1805 4.75794 17.1934 4.64258 17.196 4.54096C17.199 4.42504 17.1925 4.25341 17.116 4.06934C17.0183 3.83421 16.8437 3.63917 16.6208 3.5161C16.4464 3.41977 16.2765 3.39436 16.1609 3.38452C16.0596 3.3759 15.9436 3.37594 15.8446 3.37598H3.84131L3.77876 2.37526C3.77354 2.29116 3.76724 2.18968 3.75449 2.10034C3.7396 1.99602 3.70901 1.8491 3.62291 1.69695C3.51064 1.49852 3.34072 1.3389 3.13568 1.23922C2.97845 1.16278 2.82991 1.14142 2.72486 1.13306C2.6349 1.12591 2.53324 1.12595 2.44898 1.12598H1.49609C1.08188 1.12598 0.746094 1.46177 0.746094 1.87598C0.746094 2.2902 1.08188 2.62598 1.49609 2.62598Z" fill="white"/>
<path d="M5.625 15.374C5.00368 15.374 4.5 15.8777 4.5 16.499C4.5 17.1203 5.00368 17.624 5.625 17.624C6.24632 17.624 6.75 17.1203 6.75 16.499C6.75 15.8777 6.24632 15.374 5.625 15.374Z" fill="#F4F6FE"/>
<path d="M12.375 15.374C11.7537 15.374 11.25 15.8777 11.25 16.499C11.25 17.1203 11.7537 17.624 12.375 17.624C12.9963 17.624 13.5 17.1203 13.5 16.499C13.5 15.8777 12.9963 15.374 12.375 15.374Z" fill="#F4F6FE"/>
</svg>
