<svg xmlns="http://www.w3.org/2000/svg" width="56" height="56" viewBox="0 0 56 56" fill="none">
  <path fill-rule="evenodd" clip-rule="evenodd" d="M28.0016 50.3996C40.3728 50.3996 50.4016 40.3708 50.4016 27.9996C50.4016 15.6284 40.3728 5.59961 28.0016 5.59961C15.6304 5.59961 5.60156 15.6284 5.60156 27.9996C5.60156 40.3708 15.6304 50.3996 28.0016 50.3996ZM26.7547 20.07C25.8955 19.4972 24.7908 19.4438 23.8804 19.9311C22.9699 20.4183 22.4016 21.3671 22.4016 22.3997V33.5997C22.4016 34.6324 22.9699 35.5813 23.8804 36.0685C24.7908 36.5557 25.8955 36.5022 26.7547 35.9296L35.1547 30.3296C35.9337 29.8102 36.4016 28.9361 36.4016 27.9997C36.4016 27.0636 35.9337 26.1893 35.1547 25.67L26.7547 20.07Z" fill="white"/>
</svg>